<svg width="37" height="29" viewBox="0 0 37 29" fill="none" xmlns="http://www.w3.org/2000/svg">
<g clip-path="url(#clip0_124_448)">
<path d="M23.2479 26.703V26.593H16.4113V26.703L16.4125 26.7573C16.4125 27.3665 16.1734 27.9508 15.7479 28.3816C15.3224 28.8124 14.7453 29.0544 14.1435 29.0544C13.5418 29.0544 12.9647 28.8124 12.5392 28.3816C12.1137 27.9508 11.8746 27.3665 11.8746 26.7573L11.8758 26.7005V26.593H11.0964C10.7641 26.593 10.4418 26.478 10.183 26.2669C9.92424 26.0559 9.74452 25.7617 9.6737 25.433L9.67251 25.4233L5.11673 3.58512L1.22457 2.92899C0.853882 2.85319 0.526817 2.63447 0.312473 2.31904C0.0981301 2.00362 0.0132965 1.61619 0.0758953 1.23861C0.138494 0.861031 0.343623 0.522874 0.647943 0.295581C0.952264 0.0682878 1.33194 -0.0303398 1.70676 0.0205351L1.6996 0.0193268L6.57047 0.840994C7.16367 0.943702 7.62915 1.39804 7.75328 1.98045L7.75448 1.99012L8.58041 5.93412L22.7896 7.13279C22.7018 7.60533 22.6571 8.08504 22.6559 8.56587V8.5707C22.6559 9.05726 22.6969 9.53213 22.7789 9.99533L22.7717 9.94699C22.3807 10.0718 22.0487 10.338 21.8394 10.6949C21.63 11.0517 21.5578 11.4742 21.6366 11.8815L21.6354 11.8707L22.4936 18.1419C22.5461 18.5443 22.7275 18.8971 22.9925 19.163C23.2336 19.4058 23.5642 19.5581 23.9306 19.5617H23.9318C24.0138 19.5617 24.093 19.554 24.1693 19.5387L24.161 19.54C24.5678 19.432 24.9189 19.1717 25.1434 18.8117C25.3678 18.4517 25.4488 18.0188 25.3701 17.6006L25.3713 17.6115L24.9034 14.2015C25.6461 14.9836 26.5373 15.6055 27.5235 16.0299C28.5096 16.4543 29.5704 16.6725 30.642 16.6714C30.6937 16.673 30.7446 16.6706 30.7947 16.6641L30.9057 16.6581L30.1073 21.373C30.0875 21.487 30.0289 21.5903 29.9417 21.6652C29.8545 21.74 29.7441 21.7815 29.6298 21.7826H11.8877L12.278 23.6519H29.1751C29.5511 23.667 29.9068 23.8288 30.1676 24.1033C30.4285 24.3779 30.5743 24.744 30.5746 25.1249C30.575 25.5059 30.4297 25.8722 30.1693 26.1472C29.9088 26.4222 29.5535 26.5845 29.1775 26.6002H27.7858V26.7102C27.7858 27.3194 27.5468 27.9037 27.1212 28.3345C26.6957 28.7652 26.1186 29.0072 25.5169 29.0072C24.9151 29.0072 24.338 28.7652 23.9125 28.3345C23.487 27.9037 23.2479 27.3194 23.2479 26.7102V26.703ZM24.8688 26.703C24.869 26.7931 24.8878 26.8823 24.9238 26.9647C24.9599 27.0472 25.0124 27.1212 25.0782 27.182C25.144 27.2428 25.2215 27.2892 25.3059 27.3181C25.3903 27.347 25.4796 27.3578 25.5684 27.3499C25.6571 27.3421 25.7433 27.3156 25.8214 27.2722C25.8995 27.2289 25.9678 27.1696 26.0221 27.0981C26.0764 27.0266 26.1155 26.9444 26.1368 26.8569C26.158 26.7693 26.1612 26.6782 26.1459 26.5894V26.593H24.8807C24.8759 26.6295 24.8727 26.6662 24.8712 26.703H24.8688ZM13.4966 26.703C13.4969 26.7931 13.5156 26.8823 13.5517 26.9647C13.5877 27.0472 13.6403 27.1212 13.7061 27.182C13.7718 27.2428 13.8494 27.2892 13.9338 27.3181C14.0181 27.347 14.1075 27.3578 14.1963 27.3499C14.285 27.3421 14.3711 27.3156 14.4493 27.2722C14.5274 27.2289 14.5957 27.1696 14.65 27.0981C14.7043 27.0266 14.7433 26.9444 14.7646 26.8569C14.7859 26.7693 14.789 26.6782 14.7737 26.5894V26.593H13.5074L13.499 26.7005V26.703H13.4966ZM18.1121 9.93733C17.7053 10.0453 17.3542 10.3056 17.1297 10.6656C16.9053 11.0256 16.8242 11.4585 16.903 11.8767L16.9018 11.8658L17.76 18.1371C17.8125 18.5395 17.9939 18.8923 18.2589 19.1581C18.5 19.401 18.8306 19.5532 19.197 19.5569C19.2782 19.5569 19.3586 19.5492 19.4357 19.5339L19.4274 19.5351C19.8342 19.4272 20.1853 19.1669 20.4097 18.8069C20.6342 18.4468 20.7152 18.0139 20.6364 17.5957L20.6376 17.6066L19.7795 11.3354C19.7302 10.9483 19.5546 10.5889 19.2806 10.3143C19.0315 10.0621 18.6948 9.91852 18.3424 9.91437H18.3412C18.2585 9.91437 18.1785 9.92243 18.1013 9.93854L18.1097 9.93733H18.1121ZM13.3785 9.93733C12.97 10.0443 12.6173 10.305 12.3924 10.6664C12.1674 11.0277 12.0873 11.4624 12.1682 11.8815L12.167 11.8707L13.0252 18.1419C13.0777 18.5443 13.2591 18.8971 13.5241 19.163C13.7652 19.4058 14.0958 19.5581 14.4622 19.5617H14.4634C14.5446 19.5617 14.6237 19.554 14.7009 19.5387L14.6926 19.54C15.0996 19.4323 15.451 19.1721 15.6757 18.812C15.9004 18.452 15.9816 18.0189 15.9028 17.6006L15.904 17.6115L15.0447 11.3366C14.9953 10.9495 14.8198 10.5901 14.5458 10.3155C14.2967 10.0633 13.9599 9.91973 13.6076 9.91558H13.6064C13.5253 9.91558 13.4465 9.92323 13.3701 9.93854L13.3785 9.93733ZM23.8686 8.57433C23.8689 6.75406 24.5834 5.00847 25.855 3.72157C26.4847 3.08436 27.2321 2.57895 28.0547 2.23418C28.8773 1.88941 29.7588 1.71204 30.6491 1.7122C31.5394 1.71236 32.4209 1.89004 33.2434 2.2351C34.0658 2.58017 34.8131 3.08585 35.4425 3.72328C36.0719 4.36071 36.5711 5.11741 36.9117 5.95017C37.2522 6.78293 37.4274 7.67544 37.4273 8.57674C37.4268 10.3973 36.712 12.1432 35.44 13.4302C34.1681 14.7172 32.4433 15.44 30.6449 15.4395C28.8466 15.439 27.1222 14.7153 25.8509 13.4276C24.5796 12.1399 23.8657 10.3937 23.8662 8.57312L23.8686 8.57433ZM25.8105 8.57433C25.8105 9.21746 25.9356 9.85429 26.1787 10.4485C26.4218 11.0426 26.7781 11.5825 27.2273 12.0373C27.6765 12.4921 28.2098 12.8528 28.7967 13.0989C29.3836 13.345 30.0127 13.4717 30.6479 13.4717C31.2832 13.4717 31.9122 13.345 32.4991 13.0989C33.086 12.8528 33.6193 12.4921 34.0685 12.0373C34.5177 11.5825 34.874 11.0426 35.1171 10.4485C35.3603 9.85429 35.4854 9.21746 35.4854 8.57433C35.4855 7.27514 34.9759 6.0291 34.0686 5.11033C33.1613 4.19155 31.9306 3.6753 30.6473 3.67514C29.364 3.67498 28.1333 4.19093 27.2257 5.10947C26.3182 6.02802 25.8082 7.27393 25.8081 8.57312L25.8105 8.57433ZM29.6776 10.533V9.5567H28.7132C28.4555 9.5567 28.2084 9.45308 28.0262 9.26862C27.844 9.08416 27.7416 8.83398 27.7416 8.57312C27.7416 8.31226 27.844 8.06208 28.0262 7.87762C28.2084 7.69316 28.4555 7.58954 28.7132 7.58954H29.6776V6.6132C29.6776 6.35234 29.7799 6.10216 29.9621 5.9177C30.1443 5.73325 30.3915 5.62962 30.6491 5.62962C30.9068 5.62962 31.1539 5.73325 31.3361 5.9177C31.5183 6.10216 31.6207 6.35234 31.6207 6.6132V7.58954H32.5851C32.8427 7.58954 33.0898 7.69316 33.272 7.87762C33.4542 8.06208 33.5566 8.31226 33.5566 8.57312C33.5566 8.83398 33.4542 9.08416 33.272 9.26862C33.0898 9.45308 32.8427 9.5567 32.5851 9.5567H31.6207V10.5318C31.6207 10.7927 31.5183 11.0429 31.3361 11.2273C31.1539 11.4118 30.9068 11.5154 30.6491 11.5154C30.3915 11.5154 30.1443 11.4118 29.9621 11.2273C29.7799 11.0429 29.6776 10.7927 29.6776 10.5318V10.533Z" fill="#3F00BC"/>
</g>
<defs>
<clipPath id="clip0_124_448">
<rect width="37" height="29" fill="white"/>
</clipPath>
</defs>
</svg>
