<svg width="33" height="33" viewBox="0 0 33 33" fill="none" xmlns="http://www.w3.org/2000/svg">
<path d="M1.90051 16.8125C1.90051 19.7792 2.78025 22.6793 4.42847 25.146C6.07669 27.6128 8.41937 29.5354 11.1603 30.6707C13.9011 31.806 16.9171 32.103 19.8269 31.5243C22.7366 30.9455 25.4093 29.5169 27.5071 27.4191C29.6049 25.3213 31.0335 22.6486 31.6123 19.7388C32.1911 16.8291 31.894 13.8131 30.7587 11.0722C29.6234 8.33135 27.7008 5.98868 25.2341 4.34046C22.7673 2.69223 19.8672 1.8125 16.9005 1.8125C12.7071 1.82828 8.68213 3.46454 5.66718 6.37916L1.90051 10.1458" stroke="white" stroke-width="2" stroke-linecap="round" stroke-linejoin="round"/>
<path d="M1.90051 1.8125V10.1458H10.2338M16.9005 8.47916V16.8125L23.5672 20.1458" stroke="white" stroke-width="2" stroke-linecap="round" stroke-linejoin="round"/>
</svg>
