<svg width="49" height="49" viewBox="0 0 49 49" fill="none" xmlns="http://www.w3.org/2000/svg">
<path d="M39.8125 6.125H9.1875C8.37527 6.125 7.59632 6.44766 7.02199 7.02199C6.44766 7.59632 6.125 8.37527 6.125 9.1875V39.8125C6.125 40.6247 6.44766 41.4037 7.02199 41.978C7.59632 42.5523 8.37527 42.875 9.1875 42.875H39.8125C40.6247 42.875 41.4037 42.5523 41.978 41.978C42.5523 41.4037 42.875 40.6247 42.875 39.8125V9.1875C42.875 8.37527 42.5523 7.59632 41.978 7.02199C41.4037 6.44766 40.6247 6.125 39.8125 6.125Z" stroke="black" stroke-width="2" stroke-linecap="round" stroke-linejoin="round"/>
<path d="M21.4375 31.6458L26.5417 35.7292L34.7084 25.5208M14.2917 15.3125H34.7084M14.2917 23.4792H22.4584" stroke="black" stroke-width="2" stroke-linecap="round" stroke-linejoin="round"/>
</svg>
